<?xml version="1.0" encoding="utf-8"?>
<svg width="168px" height="46px" viewBox="0 0 168 46" version="1.1" xmlns:xlink="http://www.w3.org/1999/xlink" xmlns="http://www.w3.org/2000/svg">
  <defs>
    <path d="M0 0L168 0L168 46L0 46L0 0Z" id="path_1" />
    <clipPath id="clip_1">
      <use xlink:href="#path_1" clip-rule="evenodd" fill-rule="evenodd" transform="translate(0, -0.0107421875)" />
    </clipPath>
  </defs>
  <g id="Dipaditya." clip-path="url(#clip_1)" transform="translate(0 0.0107421875)">
    <g id="Dipaditya-." fill="#FAE800">
      <path d="M11.1885 36.8125L4.36035 36.8125L4.36035 33.1572L10.9473 33.1572Q14.1016 33.1572 16.1982 31.979Q18.2949 30.8008 19.334 28.5093Q20.373 26.2178 20.373 22.9521Q20.373 19.7051 19.3433 17.4414Q18.3135 15.1777 16.2725 13.9995Q14.2314 12.8213 11.207 12.8213L4.21191 12.8213L4.21191 9.16602L11.4668 9.16602Q15.5303 9.16602 18.4434 10.8174Q21.3564 12.4688 22.915 15.5581Q24.4736 18.6475 24.4736 22.9521Q24.4736 27.2754 22.9058 30.374Q21.3379 33.4727 18.3691 35.1426Q15.4004 36.8125 11.1885 36.8125ZM6.40137 9.16602L6.40137 36.8125L2.22656 36.8125L2.22656 9.16602L6.40137 9.16602ZM27.7393 36.8125L27.7393 16.0684L31.7471 16.0684L31.7471 36.8125L27.7393 36.8125ZM29.7617 12.877Q28.7041 12.877 27.9619 12.1719Q27.2197 11.4668 27.2197 10.4834Q27.2197 9.48145 27.9619 8.77637Q28.7041 8.07129 29.7617 8.07129Q30.8008 8.07129 31.5522 8.77637Q32.3037 9.48145 32.3037 10.4834Q32.3037 11.4668 31.5522 12.1719Q30.8008 12.877 29.7617 12.877ZM35.6064 44.5684L35.6064 16.0684L39.5029 16.0684L39.5029 19.4453L39.8369 19.4453Q40.208 18.7959 40.8667 17.9424Q41.5254 17.0889 42.7129 16.4487Q43.9004 15.8086 45.8115 15.8086Q48.3164 15.8086 50.2739 17.0703Q52.2314 18.332 53.3633 20.7256Q54.4951 23.1191 54.4951 26.4961Q54.4951 29.8359 53.3818 32.2388Q52.2686 34.6416 50.311 35.9312Q48.3535 37.2207 45.8301 37.2207Q43.9561 37.2207 42.7593 36.5806Q41.5625 35.9404 40.8853 35.0869Q40.208 34.2334 39.8369 33.584L39.6143 33.584L39.6143 44.5684L35.6064 44.5684ZM44.958 33.7881Q46.7578 33.7881 47.9639 32.8232Q49.1699 31.8584 49.7915 30.1978Q50.4131 28.5371 50.4131 26.459Q50.4131 24.3994 49.8008 22.7666Q49.1885 21.1338 47.9824 20.1875Q46.7764 19.2412 44.958 19.2412Q43.1953 19.2412 41.9893 20.1411Q40.7832 21.041 40.1616 22.6646Q39.54 24.2881 39.54 26.459Q39.54 28.6299 40.1709 30.2813Q40.8018 31.9326 42.0171 32.8604Q43.2324 33.7881 44.958 33.7881ZM63.4199 37.2578Q61.4531 37.2578 59.8574 36.5249Q58.2617 35.792 57.334 34.3818Q56.4063 32.9717 56.4063 30.9492Q56.4063 29.1865 57.0835 28.064Q57.7607 26.9414 58.9111 26.2734Q60.0615 25.6055 61.4717 25.2715Q62.8818 24.9375 64.3662 24.752Q66.2402 24.5479 67.3906 24.3994Q68.541 24.251 69.0698 23.9263Q69.5986 23.6016 69.5986 22.8779L69.5986 22.7852Q69.5986 21.0225 68.606 20.0576Q67.6133 19.0928 65.665 19.0928Q63.6426 19.0928 62.4644 19.9741Q61.2861 20.8555 60.8408 21.9688L57.0371 21.0967Q57.7236 19.2041 59.0317 18.0444Q60.3398 16.8848 62.0376 16.3467Q63.7354 15.8086 65.5908 15.8086Q66.834 15.8086 68.2256 16.0962Q69.6172 16.3838 70.8511 17.1538Q72.085 17.9238 72.8643 19.3525Q73.6436 20.7813 73.6436 23.0449L73.6436 36.8125L69.6914 36.8125L69.6914 33.9736L69.543 33.9736Q69.1719 34.7344 68.3833 35.4951Q67.5947 36.2559 66.3701 36.7568Q65.1455 37.2578 63.4199 37.2578ZM64.292 34.0293Q65.9805 34.0293 67.168 33.3706Q68.3555 32.7119 68.9863 31.6357Q69.6172 30.5596 69.6172 29.3535L69.6172 26.6631Q69.3945 26.8672 68.7822 27.0527Q68.1699 27.2383 67.3906 27.3682Q66.6113 27.498 65.8691 27.6001Q65.127 27.7021 64.626 27.7578Q63.457 27.9248 62.4922 28.2681Q61.5273 28.6113 60.9429 29.27Q60.3584 29.9287 60.3584 31.0049Q60.3584 32.5078 61.4717 33.2686Q62.585 34.0293 64.292 34.0293ZM85.2217 37.2207Q82.6982 37.2207 80.7314 35.9312Q78.7646 34.6416 77.6514 32.2388Q76.5381 29.8359 76.5381 26.4961Q76.5381 23.1191 77.6699 20.7256Q78.8018 18.332 80.7686 17.0703Q82.7354 15.8086 85.2217 15.8086Q87.1699 15.8086 88.3481 16.4487Q89.5264 17.0889 90.1851 17.9424Q90.8438 18.7959 91.1963 19.4453L91.4375 19.4453L91.4375 9.16602L95.4453 9.16602L95.4453 36.8125L91.5303 36.8125L91.5303 33.584L91.1963 33.584Q90.8438 34.2334 90.1572 35.0869Q89.4707 35.9404 88.2925 36.5806Q87.1143 37.2207 85.2217 37.2207ZM86.0938 33.7881Q87.8379 33.7881 89.0439 32.8604Q90.25 31.9326 90.8716 30.2813Q91.4932 28.6299 91.4932 26.459Q91.4932 24.2881 90.8809 22.6646Q90.2686 21.041 89.0625 20.1411Q87.8564 19.2412 86.0938 19.2412Q84.2754 19.2412 83.0693 20.1875Q81.8633 21.1338 81.251 22.7666Q80.6387 24.3994 80.6387 26.459Q80.6387 28.5371 81.251 30.1978Q81.8633 31.8584 83.0786 32.8232Q84.2939 33.7881 86.0938 33.7881ZM99.3047 36.8125L99.3047 16.0684L103.313 16.0684L103.313 36.8125L99.3047 36.8125ZM101.327 12.877Q100.27 12.877 99.5273 12.1719Q98.7852 11.4668 98.7852 10.4834Q98.7852 9.48145 99.5273 8.77637Q100.27 8.07129 101.327 8.07129Q102.366 8.07129 103.118 8.77637Q103.869 9.48145 103.869 10.4834Q103.869 11.4668 103.118 12.1719Q102.366 12.877 101.327 12.877ZM116.82 16.0684L116.82 19.3154L105.502 19.3154L105.502 16.0684L116.82 16.0684ZM108.526 11.1328L112.553 11.1328L112.553 30.7266Q112.553 32.1553 113.146 32.814Q113.74 33.4727 115.058 33.4727Q115.373 33.4727 115.735 33.4355Q116.097 33.3984 116.468 33.3242L117.229 36.6641Q116.616 36.8682 115.893 36.9795Q115.169 37.0908 114.445 37.0908Q111.755 37.0908 110.141 35.5786Q108.526 34.0664 108.526 31.543L108.526 11.1328ZM122.22 44.5684Q121.311 44.5869 120.578 44.4478Q119.845 44.3086 119.455 44.123L120.438 40.8389L120.717 40.9131Q122.257 41.3027 123.324 40.8667Q124.391 40.4307 125.114 38.4639L125.615 37.0908L118.045 16.0684L122.368 16.0684L127.601 32.1738L127.823 32.1738L133.074 16.0684L137.397 16.0684L128.862 39.5586Q128.269 41.1914 127.359 42.314Q126.45 43.4365 125.179 44.0024Q123.908 44.5684 122.22 44.5684ZM145.023 37.2578Q143.057 37.2578 141.461 36.5249Q139.865 35.792 138.938 34.3818Q138.01 32.9717 138.01 30.9492Q138.01 29.1865 138.687 28.064Q139.364 26.9414 140.515 26.2734Q141.665 25.6055 143.075 25.2715Q144.485 24.9375 145.97 24.752Q147.844 24.5479 148.994 24.3994Q150.145 24.251 150.673 23.9263Q151.202 23.6016 151.202 22.8779L151.202 22.7852Q151.202 21.0225 150.209 20.0576Q149.217 19.0928 147.269 19.0928Q145.246 19.0928 144.068 19.9741Q142.89 20.8555 142.444 21.9688L138.641 21.0967Q139.327 19.2041 140.635 18.0444Q141.943 16.8848 143.641 16.3467Q145.339 15.8086 147.194 15.8086Q148.438 15.8086 149.829 16.0962Q151.221 16.3838 152.455 17.1538Q153.688 17.9238 154.468 19.3525Q155.247 20.7813 155.247 23.0449L155.247 36.8125L151.295 36.8125L151.295 33.9736L151.146 33.9736Q150.775 34.7344 149.987 35.4951Q149.198 36.2559 147.974 36.7568Q146.749 37.2578 145.023 37.2578ZM145.896 34.0293Q147.584 34.0293 148.771 33.3706Q149.959 32.7119 150.59 31.6357Q151.221 30.5596 151.221 29.3535L151.221 26.6631Q150.998 26.8672 150.386 27.0527Q149.773 27.2383 148.994 27.3682Q148.215 27.498 147.473 27.6001Q146.73 27.7021 146.229 27.7578Q145.061 27.9248 144.096 28.2681Q143.131 28.6113 142.546 29.27Q141.962 29.9287 141.962 31.0049Q141.962 32.5078 143.075 33.2686Q144.188 34.0293 145.896 34.0293Z" />
    </g>
    <g transform="translate(157.17676, 0)" id="Dipaditya-." fill="#0389FF">
      <path d="M4.93555 37.0723Q3.80371 37.0723 3.01514 36.293Q2.22656 35.5137 2.22656 34.3818Q2.22656 33.25 3.01514 32.4707Q3.80371 31.6914 4.93555 31.6914Q6.06738 31.6914 6.85596 32.4707Q7.64453 33.25 7.64453 34.3818Q7.64453 35.5137 6.85596 36.293Q6.06738 37.0723 4.93555 37.0723Z" />
    </g>
  </g>
</svg>